<?xml version="1.0" encoding="UTF-8" standalone="no"?>
<!DOCTYPE svg PUBLIC "-//W3C//DTD SVG 1.1//EN"
 "http://www.w3.org/Graphics/SVG/1.1/DTD/svg11.dtd">
<!-- Generated by graphviz version 2.42.3 ()
 -->
<!-- Title: graphname Pages: 1 -->
<svg width="298pt" height="501pt"
 viewBox="0.00 0.00 298.00 501.00" xmlns="http://www.w3.org/2000/svg" xmlns:xlink="http://www.w3.org/1999/xlink">
<g id="graph0" class="graph" transform="scale(1 1) rotate(0) translate(4 497)">
<title>graphname</title>
<polygon fill="#fafafa" stroke="transparent" points="-4,4 -4,-497 294,-497 294,4 -4,4"/>
<g id="clust1" class="cluster">
<title>cluster_aws</title>
<polygon fill="#f5f5f5" stroke="#f5f5f5" points="8,-8 8,-485 282,-485 282,-8 8,-8"/>
<text text-anchor="start" x="100" y="-23" font-family="Helvetica,sans-Serif" font-weight="bold" font-size="20.00" fill="#707070">Provider aws</text>
</g>
<g id="clust2" class="cluster">
<title>cluster_aws_</title>
<polygon fill="#eeeeee" stroke="#eeeeee" points="16,-242 16,-477 274,-477 274,-242 16,-242"/>
<text text-anchor="start" x="141" y="-246.2" font-family="Helvetica,sans-Serif" font-size="1.00" fill="#383838"> </text>
</g>
<g id="clust3" class="cluster">
<title>cluster_aws_EKS</title>
<polygon fill="#eeeeee" stroke="#eeeeee" points="68.5,-54 68.5,-234 221.5,-234 221.5,-54 68.5,-54"/>
<text text-anchor="start" x="133.5" y="-65" font-family="Helvetica,sans-Serif" font-weight="bold" font-size="20.00" fill="#383838">EKS</text>
</g>
<!-- Route53Domain::::starhack.it -->
<g id="node1" class="node">
<title>Route53Domain::::starhack.it</title>
<polygon fill="#e5e5e5" stroke="#dddddd" points="206,-469 84,-469 84,-411 206,-411 206,-469"/>
<text text-anchor="start" x="96" y="-449.2" font-family="Helvetica,sans-Serif" font-weight="bold" font-size="16.00" fill="#707070">Route53Domain</text>
<text text-anchor="start" x="96" y="-424.2" font-family="Helvetica,sans-Serif" font-size="16.00" fill="#383838">starhack.it</text>
</g>
<!-- IamRole::::arn:aws:iam::594073614517:role/OrganizationAccountAccessRole -->
<g id="node2" class="node">
<title>IamRole::::arn:aws:iam::594073614517:role/OrganizationAccountAccessRole</title>
<polygon fill="#e5e5e5" stroke="#dddddd" points="266,-393 24,-393 24,-335 266,-335 266,-393"/>
<text text-anchor="start" x="36" y="-373.2" font-family="Helvetica,sans-Serif" font-weight="bold" font-size="16.00" fill="#707070">IamRole</text>
<text text-anchor="start" x="36" y="-348.2" font-family="Helvetica,sans-Serif" font-size="16.00" fill="#383838">OrganizationAccountAccessRole</text>
</g>
<!-- HostedZone::::/hostedzone/Z09429703J0B6XPB98IZ9 -->
<g id="node3" class="node">
<title>HostedZone::::/hostedzone/Z09429703J0B6XPB98IZ9</title>
<polygon fill="#e5e5e5" stroke="#dddddd" points="202.5,-317 87.5,-317 87.5,-259 202.5,-259 202.5,-317"/>
<text text-anchor="start" x="100" y="-297.2" font-family="Helvetica,sans-Serif" font-weight="bold" font-size="16.00" fill="#707070">HostedZone</text>
<text text-anchor="start" x="100" y="-272.2" font-family="Helvetica,sans-Serif" font-size="16.00" fill="#383838">starhack.it.</text>
</g>
<!-- IamRole::EKS::arn:aws:iam::594073614517:role/role&#45;cluster -->
<g id="node4" class="node">
<title>IamRole::EKS::arn:aws:iam::594073614517:role/role&#45;cluster</title>
<polygon fill="#e5e5e5" stroke="#dddddd" points="202.5,-226 87.5,-226 87.5,-168 202.5,-168 202.5,-226"/>
<text text-anchor="start" x="100" y="-206.2" font-family="Helvetica,sans-Serif" font-weight="bold" font-size="16.00" fill="#707070">IamRole</text>
<text text-anchor="start" x="100" y="-181.2" font-family="Helvetica,sans-Serif" font-size="16.00" fill="#383838">role&#45;cluster</text>
</g>
<!-- IamRole::EKS::arn:aws:iam::594073614517:role/role&#45;node&#45;group -->
<g id="node5" class="node">
<title>IamRole::EKS::arn:aws:iam::594073614517:role/role&#45;node&#45;group</title>
<polygon fill="#e5e5e5" stroke="#dddddd" points="213.5,-150 76.5,-150 76.5,-92 213.5,-92 213.5,-150"/>
<text text-anchor="start" x="89" y="-130.2" font-family="Helvetica,sans-Serif" font-weight="bold" font-size="16.00" fill="#707070">IamRole</text>
<text text-anchor="start" x="89" y="-105.2" font-family="Helvetica,sans-Serif" font-size="16.00" fill="#383838">role&#45;node&#45;group</text>
</g>
</g>
</svg>
